  0
SECTION
  2
HEADER
  9
$ACADVER
  1
AC1014
  9
$ACADMAINTVER
 70
     9
  9
$DWGCODEPAGE
  3
ANSI_1252
  9
$INSBASE
 10
0.0
 20
0.0
 30
0.0
  9
$EXTMIN
 10
-1438.142468949418
 20
-186.2499999999999
 30
-0.0000000000000284
  9
$EXTMAX
 10
-1218.364086734991
 20
110.6211631800433
 30
0.0000000000000061
  9
$LIMMIN
 10
0.0
 20
0.0
  9
$LIMMAX
 10
12.0
 20
9.0
  9
$ORTHOMODE
 70
     0
  9
$REGENMODE
 70
     1
  9
$FILLMODE
 70
     1
  9
$QTEXTMODE
 70
     0
  9
$MIRRTEXT
 70
     1
  9
$DRAGMODE
 70
     2
  9
$LTSCALE
 40
1.0
  9
$OSMODE
 70
    37
  9
$ATTMODE
 70
     1
  9
$TEXTSIZE
 40
0.2
  9
$TRACEWID
 40
0.05
  9
$TEXTSTYLE
  7
STANDARD
  9
$CLAYER
  8
HILFSKONSTRUKTIONEN
  9
$CELTYPE
  6
BYLAYER
  9
$CECOLOR
 62
   256
  9
$CELTSCALE
 40
1.0
  9
$DELOBJ
 70
     1
  9
$DISPSILH
 70
     0
  9
$DIMSCALE
 40
1.0
  9
$DIMASZ
 40
0.18
  9
$DIMEXO
 40
0.0625
  9
$DIMDLI
 40
0.38
  9
$DIMRND
 40
0.0
  9
$DIMDLE
 40
0.0
  9
$DIMEXE
 40
0.18
  9
$DIMTP
 40
0.0
  9
$DIMTM
 40
0.0
  9
$DIMTXT
 40
0.18
  9
$DIMCEN
 40
0.09
  9
$DIMTSZ
 40
0.0
  9
$DIMTOL
 70
     0
  9
$DIMLIM
 70
     0
  9
$DIMTIH
 70
     1
  9
$DIMTOH
 70
     1
  9
$DIMSE1
 70
     0
  9
$DIMSE2
 70
     0
  9
$DIMTAD
 70
     0
  9
$DIMZIN
 70
     0
  9
$DIMBLK
  1

  9
$DIMASO
 70
     1
  9
$DIMSHO
 70
     1
  9
$DIMPOST
  1

  9
$DIMAPOST
  1

  9
$DIMALT
 70
     0
  9
$DIMALTD
 70
     2
  9
$DIMALTF
 40
25.4
  9
$DIMLFAC
 40
1.0
  9
$DIMTOFL
 70
     0
  9
$DIMTVP
 40
0.0
  9
$DIMTIX
 70
     0
  9
$DIMSOXD
 70
     0
  9
$DIMSAH
 70
     0
  9
$DIMBLK1
  1

  9
$DIMBLK2
  1

  9
$DIMSTYLE
  2
STANDARD
  9
$DIMCLRD
 70
     0
  9
$DIMCLRE
 70
     0
  9
$DIMCLRT
 70
     0
  9
$DIMTFAC
 40
1.0
  9
$DIMGAP
 40
0.09
  9
$DIMJUST
 70
     0
  9
$DIMSD1
 70
     0
  9
$DIMSD2
 70
     0
  9
$DIMTOLJ
 70
     1
  9
$DIMTZIN
 70
     0
  9
$DIMALTZ
 70
     0
  9
$DIMALTTZ
 70
     0
  9
$DIMFIT
 70
     5
  9
$DIMUPT
 70
     0
  9
$DIMUNIT
 70
     2
  9
$DIMDEC
 70
     4
  9
$DIMTDEC
 70
     4
  9
$DIMALTU
 70
     2
  9
$DIMALTTD
 70
     2
  9
$DIMTXSTY
  7
STANDARD
  9
$DIMAUNIT
 70
     0
  9
$LUNITS
 70
     2
  9
$LUPREC
 70
     3
  9
$SKETCHINC
 40
0.1
  9
$FILLETRAD
 40
0.5
  9
$AUNITS
 70
     0
  9
$AUPREC
 70
     0
  9
$MENU
  1
.
  9
$ELEVATION
 40
0.0
  9
$PELEVATION
 40
0.0
  9
$THICKNESS
 40
0.0
  9
$LIMCHECK
 70
     0
  9
$CHAMFERA
 40
0.0
  9
$CHAMFERB
 40
0.0
  9
$CHAMFERC
 40
0.0
  9
$CHAMFERD
 40
0.0
  9
$SKPOLY
 70
     0
  9
$TDCREATE
 40
2456648.684559549
  9
$TDUPDATE
 40
2456648.684559861
  9
$TDINDWG
 40
0.0000000116
  9
$TDUSRTIMER
 40
0.0000000116
  9
$USRTIMER
 70
     1
  9
$ANGBASE
 50
0.0
  9
$ANGDIR
 70
     0
  9
$PDMODE
 70
     0
  9
$PDSIZE
 40
0.0
  9
$PLINEWID
 40
0.0
  9
$COORDS
 70
     1
  9
$SPLFRAME
 70
     0
  9
$SPLINETYPE
 70
     6
  9
$SPLINESEGS
 70
     8
  9
$ATTDIA
 70
     0
  9
$ATTREQ
 70
     1
  9
$HANDLING
 70
     1
  9
$HANDSEED
  5
148
  9
$SURFTAB1
 70
     6
  9
$SURFTAB2
 70
     6
  9
$SURFTYPE
 70
     6
  9
$SURFU
 70
     6
  9
$SURFV
 70
     6
  9
$UCSNAME
  2

  9
$UCSORG
 10
0.0
 20
0.0
 30
0.0
  9
$UCSXDIR
 10
1.0
 20
0.0
 30
0.0
  9
$UCSYDIR
 10
0.0
 20
1.0
 30
0.0
  9
$PUCSNAME
  2

  9
$PUCSORG
 10
0.0
 20
0.0
 30
0.0
  9
$PUCSXDIR
 10
1.0
 20
0.0
 30
0.0
  9
$PUCSYDIR
 10
0.0
 20
1.0
 30
0.0
  9
$USERI1
 70
     0
  9
$USERI2
 70
     0
  9
$USERI3
 70
     0
  9
$USERI4
 70
     0
  9
$USERI5
 70
     0
  9
$USERR1
 40
0.0
  9
$USERR2
 40
0.0
  9
$USERR3
 40
0.0
  9
$USERR4
 40
0.0
  9
$USERR5
 40
0.0
  9
$WORLDVIEW
 70
     1
  9
$SHADEDGE
 70
     3
  9
$SHADEDIF
 70
    70
  9
$TILEMODE
 70
     1
  9
$MAXACTVP
 70
    64
  9
$PINSBASE
 10
0.0
 20
0.0
 30
0.0
  9
$PLIMCHECK
 70
     0
  9
$PEXTMIN
 10
1.000000000000000E+20
 20
1.000000000000000E+20
 30
1.000000000000000E+20
  9
$PEXTMAX
 10
-1.000000000000000E+20
 20
-1.000000000000000E+20
 30
-1.000000000000000E+20
  9
$PLIMMIN
 10
0.0
 20
0.0
  9
$PLIMMAX
 10
12.0
 20
9.0
  9
$UNITMODE
 70
     0
  9
$VISRETAIN
 70
     1
  9
$PLINEGEN
 70
     0
  9
$PSLTSCALE
 70
     1
  9
$TREEDEPTH
 70
  3020
  9
$PICKSTYLE
 70
     1
  9
$CMLSTYLE
  2
STANDARD
  9
$CMLJUST
 70
     0
  9
$CMLSCALE
 40
1.0
  9
$PROXYGRAPHICS
 70
     1
  9
$MEASUREMENT
 70
     0
  0
ENDSEC
  0
SECTION
  2
CLASSES
  0
CLASS
  1
ACDBDICTIONARYWDFLT
  2
AcDbDictionaryWithDefault
  3
ObjectDBX Classes
 90
        0
280
     0
281
     0
  0
CLASS
  1
VISUALSTYLE
  2
AcDbVisualStyle
  3
ObjectDBX Classes
 90
     4095
280
     0
281
     0
  0
CLASS
  1
MATERIAL
  2
AcDbMaterial
  3
ObjectDBX Classes
 90
     1153
280
     0
281
     0
  0
CLASS
  1
SCALE
  2
AcDbScale
  3
ObjectDBX Classes
 90
     1153
280
     0
281
     0
  0
CLASS
  1
SUN
  2
AcDbSun
  3
SCENEOE
 90
     1153
280
     0
281
     0
  0
CLASS
  1
DICTIONARYVAR
  2
AcDbDictionaryVar
  3
ObjectDBX Classes
 90
        0
280
     0
281
     0
  0
CLASS
  1
XRECORD
  2
AcDbXrecord
  3
ObjectDBX Classes
 90
        0
280
     0
281
     0
  0
CLASS
  1
LWPOLYLINE
  2
AcDbPolyline
  3
ObjectDBX Classes
 90
        0
280
     0
281
     1
  0
CLASS
  1
HATCH
  2
AcDbHatch
  3
ObjectDBX Classes
 90
        0
280
     0
281
     1
  0
CLASS
  1
ACDBPLACEHOLDER
  2
AcDbPlaceHolder
  3
ObjectDBX Classes
 90
        0
280
     0
281
     0
  0
CLASS
  1
LAYOUT
  2
AcDbLayout
  3
ObjectDBX Classes
 90
        0
280
     0
281
     0
  0
ENDSEC
  0
SECTION
  2
TABLES
  0
TABLE
  2
VPORT
  5
8
330
0
100
AcDbSymbolTable
 70
     1
  0
VPORT
  5
29
330
8
100
AcDbSymbolTableRecord
100
AcDbViewportTableRecord
  2
*ACTIVE
 70
     0
 10
0.0
 20
0.0
 11
1.0
 21
1.0
 12
-1328.253277842205
 22
-37.81441840997834
 13
0.0
 23
0.0
 14
0.5
 24
0.5
 15
0.5
 25
0.5
 16
0.0
 26
0.0
 36
1.0
 17
0.0
 27
0.0
 37
0.0
 40
302.8085864436441
 41
0.7403156974230526
 42
50.0
 43
0.0
 44
0.0
 50
0.0
 51
0.0
 71
     0
 72
   100
 73
     1
 74
     3
 75
     0
 76
     0
 77
     0
 78
     0
  0
ENDTAB
  0
TABLE
  2
LTYPE
  5
5
330
0
100
AcDbSymbolTable
 70
     1
  0
LTYPE
  5
14
330
5
100
AcDbSymbolTableRecord
100
AcDbLinetypeTableRecord
  2
BYBLOCK
 70
     0
  3

 72
    65
 73
     0
 40
0.0
  0
LTYPE
  5
15
330
5
100
AcDbSymbolTableRecord
100
AcDbLinetypeTableRecord
  2
BYLAYER
 70
     0
  3

 72
    65
 73
     0
 40
0.0
  0
LTYPE
  5
16
330
5
100
AcDbSymbolTableRecord
100
AcDbLinetypeTableRecord
  2
CONTINUOUS
 70
     0
  3
Solid line
 72
    65
 73
     0
 40
0.0
  0
ENDTAB
  0
TABLE
  2
LAYER
  5
2
330
0
100
AcDbSymbolTable
 70
     5
  0
LAYER
  5
10
330
2
100
AcDbSymbolTableRecord
100
AcDbLayerTableRecord
  2
0
 70
     0
 62
     7
  6
CONTINUOUS
  0
LAYER
  5
6A
330
2
100
AcDbSymbolTableRecord
100
AcDbLayerTableRecord
  2
EBENE_01
 70
     0
 62
    18
  6
CONTINUOUS
  0
LAYER
  5
73
330
2
100
AcDbSymbolTableRecord
100
AcDbLayerTableRecord
  2
HILFSKONSTRUKTIONEN
 70
     0
 62
    12
  6
CONTINUOUS
  0
LAYER
  5
8E
330
2
100
AcDbSymbolTableRecord
100
AcDbLayerTableRecord
  2
EBENE_05
 70
     0
 62
     7
  6
CONTINUOUS
  0
LAYER
  5
D4
330
2
100
AcDbSymbolTableRecord
100
AcDbLayerTableRecord
  2
STANDARD
 70
     0
 62
    18
  6
CONTINUOUS
  0
ENDTAB
  0
TABLE
  2
STYLE
  5
3
330
0
100
AcDbSymbolTable
 70
     1
  0
STYLE
  5
11
330
3
100
AcDbSymbolTableRecord
100
AcDbTextStyleTableRecord
  2
STANDARD
 70
     0
 40
0.0
 41
1.0
 50
0.0
 71
     0
 42
0.2
  3
txt
  4

  0
ENDTAB
  0
TABLE
  2
VIEW
  5
6
330
0
100
AcDbSymbolTable
 70
     0
  0
ENDTAB
  0
TABLE
  2
UCS
  5
7
330
0
100
AcDbSymbolTable
 70
     0
  0
ENDTAB
  0
TABLE
  2
APPID
  5
9
330
0
100
AcDbSymbolTable
 70
     1
  0
APPID
  5
12
330
9
100
AcDbSymbolTableRecord
100
AcDbRegAppTableRecord
  2
ACAD
 70
     0
  0
ENDTAB
  0
TABLE
  2
DIMSTYLE
  5
A
330
0
100
AcDbSymbolTable
 70
     1
  0
DIMSTYLE
105
27
330
A
100
AcDbSymbolTableRecord
100
AcDbDimStyleTableRecord
  2
STANDARD
 70
     0
  3

  4

  5

  6

  7

 40
1.0
 41
0.18
 42
0.0625
 43
0.38
 44
0.18
 45
0.0
 46
0.0
 47
0.0
 48
0.0
140
0.18
141
0.09
142
0.0
143
25.4
144
1.0
145
0.0
146
1.0
147
0.09
 71
     0
 72
     0
 73
     1
 74
     1
 75
     0
 76
     0
 77
     0
 78
     0
170
     0
171
     2
172
     0
173
     0
174
     0
175
     0
176
     0
177
     0
178
     0
270
     2
271
     4
272
     4
273
     2
274
     2
340
11
275
     0
280
     0
281
     0
282
     0
283
     1
284
     0
285
     0
286
     0
287
     3
288
     0
  0
ENDTAB
  0
TABLE
  2
BLOCK_RECORD
  5
1
330
0
100
AcDbSymbolTable
 70
     1
  0
BLOCK_RECORD
  5
1F
330
1
100
AcDbSymbolTableRecord
100
AcDbBlockTableRecord
  2
*MODEL_SPACE
  0
BLOCK_RECORD
  5
1B
330
1
100
AcDbSymbolTableRecord
100
AcDbBlockTableRecord
  2
*PAPER_SPACE
  0
ENDTAB
  0
ENDSEC
  0
SECTION
  2
BLOCKS
  0
BLOCK
  5
20
330
1F
100
AcDbEntity
  8
0
100
AcDbBlockBegin
  2
*MODEL_SPACE
 70
     0
 10
0.0
 20
0.0
 30
0.0
  3
*MODEL_SPACE
  1

  0
ENDBLK
  5
21
330
1F
100
AcDbEntity
  8
0
100
AcDbBlockEnd
  0
BLOCK
  5
1C
330
1B
100
AcDbEntity
 67
     1
  8
0
100
AcDbBlockBegin
  2
*PAPER_SPACE
 70
     0
 10
0.0
 20
0.0
 30
0.0
  3
*PAPER_SPACE
  1

  0
ENDBLK
  5
1D
330
1B
100
AcDbEntity
 67
     1
  8
0
100
AcDbBlockEnd
  0
ENDSEC
  0
SECTION
  2
ENTITIES
  0
ARC
  5
6B
330
1F
100
AcDbEntity
  8
EBENE_01
100
AcDbCircle
 10
-1354.968645649851
 20
59.73700382531679
 30
0.0
 40
10.99999999999992
100
AcDbArc
 50
224.4268514086739
 51
314.4268514086761
  0
LINE
  5
6C
330
1F
100
AcDbEntity
  8
EBENE_01
100
AcDbLine
 10
-1347.268666571111
 20
51.88141204703749
 30
0.0
 11
-1344.372472269914
 21
56.7838513229364
 31
0.0
  0
ARC
  5
6D
330
1F
100
AcDbEntity
  8
EBENE_01
100
AcDbCircle
 10
-1354.968645649851
 20
59.73700382531679
 30
0.0
 40
10.99999999999992
100
AcDbArc
 50
344.4268514086741
 51
14.42685140867503
  0
LINE
  5
6E
330
1F
100
AcDbEntity
  8
EBENE_01
100
AcDbLine
 10
-1344.315514068727
 20
62.47758542697511
 30
0.0
 11
-1347.113053871571
 21
67.43698290405634
 31
0.0
  0
ARC
  5
6F
330
1F
100
AcDbEntity
  8
EBENE_01
100
AcDbCircle
 10
-1354.968645649851
 20
59.73700382531679
 30
0.0
 40
10.99999999999992
100
AcDbArc
 50
44.42685140867512
 51
134.4268514086761
  0
LINE
  5
70
330
1F
100
AcDbEntity
  8
EBENE_01
100
AcDbLine
 10
-1362.66862472859
 20
67.5925956035961
 30
0.0
 11
-1365.564819029787
 21
62.69015632769718
 31
0.0
  0
ARC
  5
71
330
1F
100
AcDbEntity
  8
EBENE_01
100
AcDbCircle
 10
-1354.968645649851
 20
59.73700382531679
 30
0.0
 40
10.99999999999992
100
AcDbArc
 50
164.4268514086749
 51
194.4268514086756
  0
LINE
  5
72
330
1F
100
AcDbEntity
  8
EBENE_01
100
AcDbLine
 10
-1365.621777230971
 20
56.99642222365927
 30
0.0
 11
-1362.82423742813
 21
52.03702474657735
 31
0.0
  0
CIRCLE
  5
74
330
1F
100
AcDbEntity
  8
HILFSKONSTRUKTIONEN
100
AcDbCircle
 10
-1361.93686353495
 20
55.80631124051843
 30
0.0
 40
3.4
  0
CIRCLE
  5
75
330
1F
100
AcDbEntity
  8
HILFSKONSTRUKTIONEN
100
AcDbCircle
 10
-1348.080457074399
 20
55.66769641011524
 30
0.0
 40
2.0
  0
CIRCLE
  5
76
330
1F
100
AcDbEntity
  8
HILFSKONSTRUKTIONEN
100
AcDbCircle
 10
-1348.080457074399
 20
55.66769641011524
 30
0.0
 40
3.4
  0
CIRCLE
  5
77
330
1F
100
AcDbEntity
  8
HILFSKONSTRUKTIONEN
100
AcDbCircle
 10
-1361.93686353495
 20
55.80631124051843
 30
0.0
 40
2.0
  0
CIRCLE
  5
78
330
1F
100
AcDbEntity
  8
HILFSKONSTRUKTIONEN
100
AcDbCircle
 10
-1354.888616340204
 20
67.73700382531672
 30
0.0
 40
3.4
  0
CIRCLE
  5
79
330
1F
100
AcDbEntity
  8
HILFSKONSTRUKTIONEN
100
AcDbCircle
 10
-1354.888616340204
 20
67.73700382531675
 30
0.0
 40
2.0
  0
ARC
  5
7A
330
1F
100
AcDbEntity
  8
EBENE_01
100
AcDbCircle
 10
-1383.254861873143
 20
-61.46459227510387
 30
0.0
 40
15.00000000000007
100
AcDbArc
 50
234.9999999953457
 51
256.2185622325244
  0
LINE
  5
7B
330
1F
100
AcDbEntity
  8
EBENE_01
100
AcDbLine
 10
-1386.828144243332
 20
-76.03276488195137
 30
0.0
 11
-1368.759707512445
 21
-80.46459227467811
 31
0.0
  0
LINE
  5
7C
330
1F
100
AcDbEntity
  8
EBENE_01
100
AcDbLine
 10
-1368.759707512445
 20
-80.46459227467811
 30
0.0
 11
-1296.759707512445
 21
-80.46459227467811
 31
0.0
  0
LINE
  5
7D
330
1F
100
AcDbEntity
  8
EBENE_01
100
AcDbLine
 10
-1296.759707512445
 20
-80.46459227467811
 30
0.0
 11
-1296.759707512445
 21
-60.46459227467811
 31
0.0
  0
LINE
  5
7E
330
1F
100
AcDbEntity
  8
EBENE_01
100
AcDbLine
 10
-1296.759707512445
 20
-60.46459227467811
 30
0.0
 11
-1357.877706792513
 21
-60.46459227467811
 31
0.0
  0
ARC
  5
7F
330
1F
100
AcDbEntity
  8
EBENE_01
100
AcDbCircle
 10
-1357.877706792513
 20
-45.46459227467822
 30
0.0
 40
14.99999999999991
100
AcDbArc
 50
212.2309526364634
 51
270.0
  0
ARC
  5
80
330
1F
100
AcDbEntity
  8
EBENE_01
100
AcDbCircle
 10
-1383.254861873141
 20
-61.46459227510137
 30
0.0
 40
14.99999999999671
100
AcDbArc
 50
32.23095263645915
 51
55.0000000000035
  0
LINE
  5
81
330
1F
100
AcDbEntity
  8
EBENE_01
100
AcDbLine
 10
-1374.651215327878
 20
-49.1773116107688
 30
-0.0000000000000284
 11
-1394.151294358535
 21
-35.52320927781783
 31
-0.0000000000000284
  0
LINE
  5
82
330
1F
100
AcDbEntity
  8
EBENE_01
100
AcDbLine
 10
-1394.151294358535
 20
-35.52320927781783
 30
-0.0000000000000284
 11
-1419.869116949764
 21
-17.51539603309912
 31
-0.0000000000000284
  0
ARC
  5
83
330
1F
100
AcDbEntity
  8
EBENE_01
100
AcDbCircle
 10
-1421.303058040642
 20
-19.56327614382165
 30
-0.0000000000000284
 40
2.5000000000001
100
AcDbArc
 50
55.00000000000102
 51
145.0000000000003
  0
LINE
  5
84
330
1F
100
AcDbEntity
  8
EBENE_01
100
AcDbLine
 10
-1423.350938151365
 20
-18.12933505294392
 30
-0.0000000000000284
 11
-1437.690349060141
 21
-38.60813616016866
 31
-0.0000000000000284
  0
ARC
  5
85
330
1F
100
AcDbEntity
  8
EBENE_01
100
AcDbCircle
 10
-1435.642468949418
 20
-40.04207725104634
 30
-0.0000000000000284
 40
2.500000000000039
100
AcDbArc
 50
144.9999999999993
 51
234.9999999999999
  0
LINE
  5
86
330
1F
100
AcDbEntity
  8
EBENE_01
100
AcDbLine
 10
-1437.076410040296
 20
-42.08995736176881
 30
-0.0000000000000284
 11
-1411.358587449066
 21
-60.09777060648763
 31
0.0
  0
LINE
  5
87
330
1F
100
AcDbEntity
  8
EBENE_01
100
AcDbLine
 10
-1411.358587449066
 20
-60.09777060648763
 30
0.0
 11
-1391.858508419407
 21
-73.75187293874
 31
0.0
  0
CIRCLE
  5
88
330
1F
100
AcDbEntity
  8
EBENE_01
100
AcDbCircle
 10
-1306.259707512445
 20
-70.46459227510387
 30
0.0
 40
3.1
  0
CIRCLE
  5
89
330
1F
100
AcDbEntity
  8
EBENE_01
100
AcDbCircle
 10
-1332.259707512445
 20
-70.46459227467811
 30
0.0
 40
3.1
  0
CIRCLE
  5
8A
330
1F
100
AcDbEntity
  8
EBENE_01
100
AcDbCircle
 10
-1318.259707512445
 20
-72.46459227467811
 30
0.0
 40
2.5
  0
CIRCLE
  5
8B
330
1F
100
AcDbEntity
  8
HILFSKONSTRUKTIONEN
100
AcDbCircle
 10
-1251.759707512446
 20
-126.7499999999993
 30
0.0
 40
12.5
  0
CIRCLE
  5
8C
330
1F
100
AcDbEntity
  8
HILFSKONSTRUKTIONEN
100
AcDbCircle
 10
-1274.259707512446
 20
-153.4999999999993
 30
0.0
 40
12.5
  0
CIRCLE
  5
8D
330
1F
100
AcDbEntity
  8
HILFSKONSTRUKTIONEN
100
AcDbCircle
 10
-1274.259707512446
 20
-99.99999999999928
 30
0.0
 40
12.5
  0
LINE
  5
8F
330
1F
100
AcDbEntity
  8
EBENE_05
100
AcDbLine
 10
-1229.259707512445
 20
-186.2499999999999
 30
0.0
 11
-1229.259707512445
 21
-67.75000000000001
 31
0.0
  0
LINE
  5
90
330
1F
100
AcDbEntity
  8
EBENE_05
100
AcDbLine
 10
-1229.259707512445
 20
-67.75000000000001
 30
0.0
 11
-1296.759707512445
 21
-80.46459227467811
 31
0.0
  0
LINE
  5
91
330
1F
100
AcDbEntity
  8
EBENE_05
100
AcDbLine
 10
-1296.759707512445
 20
-80.46459227467811
 30
0.0
 11
-1296.759707512445
 21
-173.5354077253219
 31
0.0
  0
LINE
  5
92
330
1F
100
AcDbEntity
  8
EBENE_05
100
AcDbLine
 10
-1296.759707512445
 20
-173.5354077253219
 30
0.0
 11
-1229.259707512445
 21
-186.2499999999999
 31
0.0
  0
CIRCLE
  5
93
330
1F
100
AcDbEntity
  8
EBENE_05
100
AcDbCircle
 10
-1251.759707512446
 20
-91.99999999999926
 30
0.0
 40
2.5
  0
CIRCLE
  5
94
330
1F
100
AcDbEntity
  8
EBENE_05
100
AcDbCircle
 10
-1251.759707512446
 20
-161.4999999999993
 30
0.0
 40
2.5
  0
CIRCLE
  5
95
330
1F
100
AcDbEntity
  8
EBENE_05
100
AcDbCircle
 10
-1282.259707512446
 20
-126.7499999999993
 30
0.0
 40
2.5
  0
LINE
  5
96
330
1F
100
AcDbEntity
  8
EBENE_01
100
AcDbLine
 10
-1313.259707512446
 20
-110.75
 30
0.0
 11
-1296.759707512445
 21
-110.75
 31
0.0
  0
POLYLINE
  5
97
330
1F
100
AcDbEntity
  8
EBENE_01
100
AcDb2dPolyline
 66
     1
 10
0.0
 20
0.0
 30
0.0
  0
VERTEX
  5
98
330
97
100
AcDbEntity
  8
EBENE_01
100
AcDbVertex
100
AcDb2dVertex
 10
-1296.759707512445
 20
-110.75
 30
0.0
  0
VERTEX
  5
99
330
97
100
AcDbEntity
  8
EBENE_01
100
AcDbVertex
100
AcDb2dVertex
 10
-1296.759707512446
 20
-98.74999999999928
 30
0.0
  0
VERTEX
  5
9A
330
97
100
AcDbEntity
  8
EBENE_01
100
AcDbVertex
100
AcDb2dVertex
 10
-1368.759707512446
 20
-98.74999999999928
 30
0.0
  0
SEQEND
  5
9B
330
97
100
AcDbEntity
  8
EBENE_01
  0
LINE
  5
9C
330
1F
100
AcDbEntity
  8
EBENE_01
100
AcDbLine
 10
-1368.759707512446
 20
-98.74999999999928
 30
0.0
 11
-1368.759707512446
 21
-81.0
 31
0.0
  0
LINE
  5
9D
330
1F
100
AcDbEntity
  8
EBENE_01
100
AcDbLine
 10
-1368.759707512446
 20
-81.0
 30
0.0
 11
-1296.759707512446
 21
-80.99999999999999
 31
0.0
  0
LINE
  5
9E
330
1F
100
AcDbEntity
  8
EBENE_01
100
AcDbLine
 10
-1296.759707512446
 20
-80.99999999999999
 30
0.0
 11
-1230.259707512446
 21
-68.5
 31
0.0
  0
LINE
  5
9F
330
1F
100
AcDbEntity
  8
EBENE_01
100
AcDbLine
 10
-1230.259707512446
 20
-68.5
 30
0.0
 11
-1230.259707512446
 21
-185.0
 31
0.0
  0
LINE
  5
A0
330
1F
100
AcDbEntity
  8
EBENE_01
100
AcDbLine
 10
-1230.259707512446
 20
-185.0
 30
0.0
 11
-1296.759707512446
 21
-172.5
 31
0.0
  0
LINE
  5
A1
330
1F
100
AcDbEntity
  8
EBENE_01
100
AcDbLine
 10
-1296.759707512446
 20
-172.5
 30
0.0
 11
-1344.759707512446
 21
-172.4999999999993
 31
0.0
  0
LINE
  5
A2
330
1F
100
AcDbEntity
  8
EBENE_01
100
AcDbLine
 10
-1344.759707512446
 20
-172.4999999999993
 30
0.0
 11
-1344.759707512446
 21
-154.7499999999993
 31
0.0
  0
POLYLINE
  5
A3
330
1F
100
AcDbEntity
  8
EBENE_01
100
AcDb2dPolyline
 66
     1
 10
0.0
 20
0.0
 30
0.0
  0
VERTEX
  5
A4
330
A3
100
AcDbEntity
  8
EBENE_01
100
AcDbVertex
100
AcDb2dVertex
 10
-1344.759707512446
 20
-154.7499999999993
 30
0.0
  0
VERTEX
  5
A5
330
A3
100
AcDbEntity
  8
EBENE_01
100
AcDbVertex
100
AcDb2dVertex
 10
-1296.759707512446
 20
-154.7499999999992
 30
0.0
  0
VERTEX
  5
A6
330
A3
100
AcDbEntity
  8
EBENE_01
100
AcDbVertex
100
AcDb2dVertex
 10
-1296.759707512446
 20
-142.7499999999999
 30
0.0
  0
VERTEX
  5
A7
330
A3
100
AcDbEntity
  8
EBENE_01
100
AcDbVertex
100
AcDb2dVertex
 10
-1313.259707512446
 20
-142.7499999999999
 30
0.0
  0
SEQEND
  5
A8
330
A3
100
AcDbEntity
  8
EBENE_01
  0
LINE
  5
A9
330
1F
100
AcDbEntity
  8
EBENE_01
100
AcDbLine
 10
-1313.259707512446
 20
-142.7499999999999
 30
0.0
 11
-1313.259707512446
 21
-110.75
 31
0.0
  0
LINE
  5
AA
330
1F
100
AcDbEntity
  8
EBENE_01
100
AcDbLine
 10
-1218.364086734991
 20
65.50758843813598
 30
0.0
 11
-1260.99461546086
 21
95.3578060098544
 31
0.0
  0
ARC
  5
AB
330
1F
100
AcDbEntity
  8
EBENE_01
100
AcDbCircle
 10
-1259.560674369983
 20
97.40568612057696
 30
0.0
 40
2.500000000000044
100
AcDbArc
 50
211.7977358172373
 51
235.0000000000011
  0
ARC
  5
AC
330
1F
100
AcDbEntity
  8
EBENE_01
100
AcDbCircle
 10
-1265.935025742002
 20
93.45376954933998
 30
0.0
 40
4.999999999998789
100
AcDbArc
 50
31.79773581724623
 51
99.99999999828792
  0
LINE
  5
AD
330
1F
100
AcDbEntity
  8
EBENE_01
100
AcDbLine
 10
-1266.803266630189
 20
98.37780831442576
 30
0.0
 11
-1271.727305395304
 21
97.50956742638961
 31
0.0
  0
ARC
  5
AE
330
1F
100
AcDbEntity
  8
EBENE_01
100
AcDbCircle
 10
-1272.595546283638
 20
102.4336061914506
 30
0.0
 40
4.999999999999993
100
AcDbArc
 50
190.0
 51
279.9999999999999
  0
LINE
  5
AF
330
1F
100
AcDbEntity
  8
EBENE_01
100
AcDbLine
 10
-1277.519585048699
 20
101.565365303116
 30
0.0
 11
-1278.387825936737
 21
106.4894040682294
 31
0.0
  0
ARC
  5
B0
330
1F
100
AcDbEntity
  8
EBENE_01
100
AcDbCircle
 10
-1283.311864701824
 20
105.6211631800433
 30
0.0
 40
4.999999999999993
100
AcDbArc
 50
9.999999998271601
 51
189.9999999982716
  0
LINE
  5
B1
330
1F
100
AcDbEntity
  8
EBENE_01
100
AcDbLine
 10
-1288.235903466911
 20
104.7529222918572
 30
0.0
 11
-1287.367662578524
 21
99.82888352649896
 31
0.0
  0
ARC
  5
B2
330
1F
100
AcDbEntity
  8
EBENE_01
100
AcDbCircle
 10
-1292.291701343585
 20
98.96064263816426
 30
0.0
 40
4.999999999999993
100
AcDbArc
 50
279.9999999999999
 51
9.999999999999984
  0
LINE
  5
B3
330
1F
100
AcDbEntity
  8
EBENE_01
100
AcDbLine
 10
-1291.42346045525
 20
94.03660387310323
 30
0.0
 11
-1296.347499220713
 21
93.16836298531054
 31
0.0
  0
ARC
  5
B4
330
1F
100
AcDbEntity
  8
EBENE_01
100
AcDbCircle
 10
-1295.479258332527
 20
88.2443242202233
 30
0.0
 40
4.999999999999993
100
AcDbArc
 50
99.99999999827223
 51
279.9999999982722
  0
LINE
  5
B5
330
1F
100
AcDbEntity
  8
EBENE_01
100
AcDbLine
 10
-1294.611017444341
 20
83.3202854551361
 30
0.0
 11
-1289.686978678555
 21
84.18852634283262
 31
0.0
  0
ARC
  5
B6
330
1F
100
AcDbEntity
  8
EBENE_01
100
AcDbCircle
 10
-1288.81873779022
 20
79.26448757777156
 30
0.0
 40
5.0
100
AcDbArc
 50
9.999999999999984
 51
99.99999999999986
  0
LINE
  5
B7
330
1F
100
AcDbEntity
  8
EBENE_01
100
AcDbLine
 10
-1283.894699025159
 20
80.13272846610623
 30
0.0
 11
-1283.026458137794
 21
75.20868970133493
 31
0.0
  0
ARC
  5
B8
330
1F
100
AcDbEntity
  8
EBENE_01
100
AcDbCircle
 10
-1278.102419372705
 20
76.07693058952005
 30
0.0
 40
5.000000000001281
100
AcDbArc
 50
189.9999999982573
 51
258.2022641827492
  0
ARC
  5
B9
330
1F
100
AcDbEntity
  8
EBENE_01
100
AcDbCircle
 10
-1279.635849642793
 20
68.73536457082862
 30
0.0
 40
2.500000000000539
100
AcDbArc
 50
54.99999999999514
 51
78.20226418275116
  0
LINE
  5
BA
330
1F
100
AcDbEntity
  8
EBENE_01
100
AcDbLine
 10
-1278.201908551915
 20
70.78324468155138
 30
0.0
 11
-1235.571379825523
 21
40.93302710946607
 31
0.0
  0
LINE
  5
BB
330
1F
100
AcDbEntity
  8
EBENE_01
100
AcDbLine
 10
-1235.571379825523
 20
40.93302710946624
 30
0.0
 11
-1218.364086734991
 21
65.50758843813598
 31
0.0
  0
LINE
  5
BC
330
1F
100
AcDbEntity
  8
EBENE_01
100
AcDbLine
 10
-1230.91478809415
 20
65.01779726505039
 30
0.0
 11
-1226.819027872705
 21
62.14991508329517
 31
0.0
  0
ARC
  5
BD
330
1F
100
AcDbEntity
  8
EBENE_01
100
AcDbCircle
 10
-1225.327729138192
 20
64.27971039844654
 30
0.0
 40
2.600000000000008
100
AcDbArc
 50
234.9999999999979
 51
54.99999999999793
  0
LINE
  5
BE
330
1F
100
AcDbEntity
  8
EBENE_01
100
AcDbLine
 10
-1223.836430403679
 20
66.40950571359794
 30
0.0
 11
-1227.932190625124
 21
69.27738789535313
 31
0.0
  0
ARC
  5
BF
330
1F
100
AcDbEntity
  8
EBENE_01
100
AcDbCircle
 10
-1229.423489359637
 20
67.1475925802017
 30
0.0
 40
2.599999999999971
100
AcDbArc
 50
55.00000000000238
 51
234.9999999999958
  0
ARC
  5
C0
330
1F
100
AcDbEntity
  8
EBENE_01
100
AcDbCircle
 10
-1261.339997275854
 20
77.28802612885188
 30
0.0
 40
4.999999999999943
100
AcDbArc
 50
234.9999999999995
 51
54.99999999999947
  0
LINE
  5
C1
330
1F
100
AcDbEntity
  8
EBENE_01
100
AcDbLine
 10
-1264.207879457609
 20
73.19226590740699
 30
0.0
 11
-1271.990464912151
 21
78.64169090943837
 31
0.0
  0
ARC
  5
C2
330
1F
100
AcDbEntity
  8
EBENE_01
100
AcDbCircle
 10
-1269.122582730273
 20
82.73745113105811
 30
0.0
 40
4.999999999999849
100
AcDbArc
 50
54.99999999999864
 51
234.9999999999991
  0
LINE
  5
C3
330
1F
100
AcDbEntity
  8
EBENE_01
100
AcDbLine
 10
-1266.254700548518
 20
86.83321135250289
 30
0.0
 11
-1258.472115094099
 21
81.3837863502968
 31
0.0
  0
LINE
  5
C4
330
1F
100
AcDbEntity
  8
EBENE_01
100
AcDbLine
 10
-1235.97925579418
 20
53.42637082498898
 30
0.0
 11
-1251.920598793633
 21
64.58861936201178
 31
0.0
  0
ARC
  5
C5
330
1F
100
AcDbEntity
  8
EBENE_01
100
AcDbCircle
 10
-1249.052716611846
 20
68.68437958330487
 30
0.0
 40
4.999999999893181
100
AcDbArc
 50
54.99999999871351
 51
234.9999999987135
  0
LINE
  5
C6
330
1F
100
AcDbEntity
  8
EBENE_01
100
AcDbLine
 10
-1246.184834430061
 20
72.780139804598
 30
0.0
 11
-1230.24349143067
 21
61.61789126787879
 31
0.0
  0
ARC
  5
C7
330
1F
100
AcDbEntity
  8
EBENE_01
100
AcDbCircle
 10
-1233.111373612424
 20
57.52213104643376
 30
0.0
 40
4.999999999999973
100
AcDbArc
 50
234.9999999999989
 51
55.00000000000245
  0
LINE
  5
C8
330
1F
100
AcDbEntity
  8
EBENE_01
100
AcDbLine
 10
-1247.759069935325
 20
58.74482704390751
 30
0.0
 11
-1251.85483015677
 21
61.61270922566275
 31
0.0
  0
ARC
  5
C9
330
1F
100
AcDbEntity
  8
EBENE_01
100
AcDbCircle
 10
-1253.346128891283
 20
59.48291391051139
 30
0.0
 40
2.600000000000014
100
AcDbArc
 50
54.999999999998
 51
234.9999999999979
  0
LINE
  5
CA
330
1F
100
AcDbEntity
  8
EBENE_01
100
AcDbLine
 10
-1254.837427625796
 20
57.35311859535999
 30
0.0
 11
-1250.741668171458
 21
54.48523695073941
 31
0.0
  0
ARC
  5
CB
330
1F
100
AcDbEntity
  8
EBENE_01
100
AcDbCircle
 10
-1249.250368669838
 20
56.61503172875611
 30
0.0
 40
2.599999999999993
100
AcDbArc
 50
234.9999793632621
 51
55.00000000000185
  0
LINE
  5
CC
330
1F
100
AcDbEntity
  8
EBENE_01
100
AcDbLine
 10
-1242.386316821171
 20
48.63475637927057
 30
0.0
 11
-1238.290556599726
 21
45.76687419751526
 31
0.0
  0
ARC
  5
CD
330
1F
100
AcDbEntity
  8
EBENE_01
100
AcDbCircle
 10
-1236.799257865213
 20
47.89666951266663
 30
0.0
 40
2.60000000000001
100
AcDbArc
 50
234.9999999999979
 51
54.99999999999793
  0
LINE
  5
CE
330
1F
100
AcDbEntity
  8
EBENE_01
100
AcDbLine
 10
-1235.3079591307
 20
50.02646482781803
 30
0.0
 11
-1239.403719352145
 21
52.89434700957322
 31
0.0
  0
ARC
  5
CF
330
1F
100
AcDbEntity
  8
EBENE_01
100
AcDbCircle
 10
-1240.895018086658
 20
50.76455169442185
 30
0.0
 40
2.600000000000007
100
AcDbArc
 50
54.99999999999793
 51
234.999999999992
  0
LINE
  5
D0
330
1F
100
AcDbEntity
  8
EBENE_01
100
AcDbLine
 10
-1236.287541208304
 20
75.12786792968735
 30
0.0
 11
-1240.383301429749
 21
77.99575011144249
 31
0.0
  0
ARC
  5
D1
330
1F
100
AcDbEntity
  8
EBENE_01
100
AcDbCircle
 10
-1241.874600164262
 20
75.86595479629109
 30
0.0
 40
2.600000000000014
100
AcDbArc
 50
54.99999999999793
 51
234.9999999999979
  0
LINE
  5
D2
330
1F
100
AcDbEntity
  8
EBENE_01
100
AcDbLine
 10
-1243.365898898775
 20
73.73615948113972
 30
0.0
 11
-1239.270139444437
 21
70.86827783651923
 31
0.0
  0
ARC
  5
D3
330
1F
100
AcDbEntity
  8
EBENE_01
100
AcDbCircle
 10
-1237.778839942817
 20
72.99807261453596
 30
0.0
 40
2.600000000000056
100
AcDbArc
 50
234.9999793632622
 51
55.00000000000328
  0
CIRCLE
  5
D5
330
1F
100
AcDbEntity
  8
STANDARD
100
AcDbCircle
 10
-1265.935025742002
 20
93.45376954934007
 30
0.0
 40
2.0
  0
CIRCLE
  5
D6
330
1F
100
AcDbEntity
  8
STANDARD
100
AcDbCircle
 10
-1278.102419372705
 20
76.07693058952005
 30
0.0
 40
2.0
  0
CIRCLE
  5
D7
330
1F
100
AcDbEntity
  8
STANDARD
100
AcDbCircle
 10
-1295.479258332525
 20
88.24432422022336
 30
0.0
 40
2.0
  0
CIRCLE
  5
D8
330
1F
100
AcDbEntity
  8
STANDARD
100
AcDbCircle
 10
-1283.311864701822
 20
105.6211631800434
 30
0.0
 40
2.0
  0
CIRCLE
  5
D9
330
1F
100
AcDbEntity
  8
STANDARD
100
AcDbCircle
 10
-1280.707142037135
 20
90.84904688404056
 30
0.0
 40
5.25
  0
CIRCLE
  5
DA
330
1F
100
AcDbEntity
  8
EBENE_01
100
AcDbCircle
 10
-1248.509707512445
 20
5.602425135460521
 30
0.0
 40
2.5
  0
LINE
  5
DB
330
1F
100
AcDbEntity
  8
EBENE_01
100
AcDbLine
 10
-1227.009707512445
 20
17.60242513546052
 30
0.0
 11
-1288.127706792513
 21
17.60242513546049
 31
0.0
  0
ARC
  5
DC
330
1F
100
AcDbEntity
  8
EBENE_01
100
AcDbCircle
 10
-1288.127706792513
 20
32.60242513546098
 30
0.0
 40
15.00000000000048
100
AcDbArc
 50
212.2309526364651
 51
270.0
  0
ARC
  5
DD
330
1F
100
AcDbEntity
  8
EBENE_01
100
AcDbCircle
 10
-1313.504861873143
 20
16.60242513503408
 30
0.0
 40
14.99999999999957
100
AcDbArc
 50
32.230952636467
 51
256.2185622325205
  0
LINE
  5
DE
330
1F
100
AcDbEntity
  8
EBENE_01
100
AcDbLine
 10
-1317.078144243332
 20
2.034252528187281
 30
0.0
 11
-1299.009707512445
 21
-2.397574864539479
 31
0.0
  0
LINE
  5
DF
330
1F
100
AcDbEntity
  8
EBENE_01
100
AcDbLine
 10
-1299.009707512445
 20
-2.397574864539479
 30
0.0
 11
-1227.009707512445
 21
-2.397574864539479
 31
0.0
  0
LINE
  5
E0
330
1F
100
AcDbEntity
  8
EBENE_01
100
AcDbLine
 10
-1227.009707512445
 20
-2.397574864539479
 30
0.0
 11
-1227.009707512445
 21
17.60242513546052
 31
0.0
  0
CIRCLE
  5
E1
330
1F
100
AcDbEntity
  8
EBENE_01
100
AcDbCircle
 10
-1286.509707512445
 20
7.602425135460521
 30
0.0
 40
3.1
  0
CIRCLE
  5
E2
330
1F
100
AcDbEntity
  8
EBENE_01
100
AcDbCircle
 10
-1236.509707512445
 20
7.602425135034792
 30
0.0
 40
3.1
  0
CIRCLE
  5
E3
330
1F
100
AcDbEntity
  8
EBENE_01
100
AcDbCircle
 10
-1313.504861873143
 20
16.60242513503476
 30
0.0
 40
8.999999999999924
  0
CIRCLE
  5
E4
330
1F
100
AcDbEntity
  8
EBENE_01
100
AcDbCircle
 10
-1313.504861873143
 20
16.60242513503476
 30
0.0
 40
10.99999999999992
  0
CIRCLE
  5
E5
330
1F
100
AcDbEntity
  8
EBENE_01
100
AcDbCircle
 10
-1257.509707512445
 20
-40.30919426770816
 30
0.0
 40
2.5
  0
CIRCLE
  5
E6
330
1F
100
AcDbEntity
  8
EBENE_01
100
AcDbCircle
 10
-1322.504861873143
 20
-29.30919426813392
 30
0.0
 40
10.99999999999992
  0
CIRCLE
  5
E7
330
1F
100
AcDbEntity
  8
EBENE_01
100
AcDbCircle
 10
-1271.509707512445
 20
-38.30919426770816
 30
0.0
 40
3.1
  0
CIRCLE
  5
E8
330
1F
100
AcDbEntity
  8
EBENE_01
100
AcDbCircle
 10
-1245.509707512445
 20
-38.30919426813392
 30
0.0
 40
3.1
  0
LINE
  5
E9
330
1F
100
AcDbEntity
  8
EBENE_01
100
AcDbLine
 10
-1366.929127595256
 20
-4.245822744959867
 30
0.0
 11
-1355.083544815628
 21
-12.54018910132453
 31
0.0
  0
ARC
  5
EA
330
1F
100
AcDbEntity
  8
EBENE_01
100
AcDbCircle
 10
-1352.244341457456
 20
-8.485386480857358
 30
0.0
 40
4.950000000000075
100
AcDbArc
 50
235.0000000249542
 51
55.00034176115195
  0
LINE
  5
EB
330
1F
100
AcDbEntity
  8
EBENE_01
100
AcDbLine
 10
-1349.405162283889
 20
-4.430566926255722
 30
0.0
 11
-1361.250720875436
 21
3.863782493539986
 31
0.0
  0
ARC
  5
EC
330
1F
100
AcDbEntity
  8
EBENE_01
100
AcDbCircle
 10
-1364.08992423539
 20
-0.1910201256794153
 30
0.0
 40
4.949999999999967
100
AcDbArc
 50
54.99999999977696
 51
235.0000000010073
  0
CIRCLE
  5
ED
330
1F
100
AcDbEntity
  8
EBENE_01
100
AcDbCircle
 10
-1368.383336514826
 20
-9.392485798472933
 30
0.0
 40
1.999999999999951
  0
CIRCLE
  5
EE
330
1F
100
AcDbEntity
  8
EBENE_01
100
AcDbCircle
 10
-1355.932225710201
 20
-18.11084801456235
 30
0.0
 40
1.999999999999982
  0
CIRCLE
  5
EF
330
1F
100
AcDbEntity
  8
EBENE_01
100
AcDbCircle
 10
-1344.46069698318
 20
-1.727807128782672
 30
0.0
 40
2.000000000000059
  0
CIRCLE
  5
F0
330
1F
100
AcDbEntity
  8
EBENE_01
100
AcDbCircle
 10
-1356.911807787805
 20
6.990555087306745
 30
0.0
 40
1.999999999999963
  0
CIRCLE
  5
F1
330
1F
100
AcDbEntity
  8
EBENE_01
100
AcDbCircle
 10
-1364.08992423539
 20
-0.1910201256793584
 30
0.0
 40
4.949999999999989
  0
ARC
  5
F2
330
1F
100
AcDbEntity
  8
EBENE_01
100
AcDbCircle
 10
-1322.504861873143
 20
-29.30919426813392
 30
0.0
 40
15.00000000000007
100
AcDbArc
 50
234.9999999953457
 51
256.2185622325244
  0
LINE
  5
F3
330
1F
100
AcDbEntity
  8
EBENE_01
100
AcDbLine
 10
-1326.078144243332
 20
-43.87736687498142
 30
0.0
 11
-1308.009707512445
 21
-48.30919426770816
 31
0.0
  0
LINE
  5
F4
330
1F
100
AcDbEntity
  8
EBENE_01
100
AcDbLine
 10
-1308.009707512445
 20
-48.30919426770816
 30
0.0
 11
-1236.009707512445
 21
-48.30919426770816
 31
0.0
  0
LINE
  5
F5
330
1F
100
AcDbEntity
  8
EBENE_01
100
AcDbLine
 10
-1236.009707512445
 20
-48.30919426770816
 30
0.0
 11
-1236.009707512445
 21
-28.30919426770816
 31
0.0
  0
LINE
  5
F6
330
1F
100
AcDbEntity
  8
EBENE_01
100
AcDbLine
 10
-1236.009707512445
 20
-28.30919426770816
 30
0.0
 11
-1297.127706792513
 21
-28.30919426770816
 31
0.0
  0
ARC
  5
F7
330
1F
100
AcDbEntity
  8
EBENE_01
100
AcDbCircle
 10
-1297.127706792513
 20
-13.30919426770828
 30
0.0
 40
14.99999999999991
100
AcDbArc
 50
212.2309526364634
 51
270.0
  0
ARC
  5
F8
330
1F
100
AcDbEntity
  8
EBENE_01
100
AcDbCircle
 10
-1322.504861873141
 20
-29.30919426813142
 30
0.0
 40
14.99999999999671
100
AcDbArc
 50
32.23095263645914
 51
55.0000000000035
  0
LINE
  5
F9
330
1F
100
AcDbEntity
  8
EBENE_01
100
AcDbLine
 10
-1313.901215327878
 20
-17.02191360379885
 30
-0.0000000000000284
 11
-1333.401294358535
 21
-3.367811270847881
 31
-0.0000000000000284
  0
LINE
  5
FA
330
1F
100
AcDbEntity
  8
EBENE_01
100
AcDbLine
 10
-1333.401294358535
 20
-3.367811270847881
 30
-0.0000000000000284
 11
-1359.119116949764
 21
14.64000197387082
 31
-0.0000000000000284
  0
ARC
  5
FB
330
1F
100
AcDbEntity
  8
EBENE_01
100
AcDbCircle
 10
-1360.553058040642
 20
12.59212186314829
 30
-0.0000000000000284
 40
2.5000000000001
100
AcDbArc
 50
55.00000000000102
 51
145.0000000000003
  0
LINE
  5
FC
330
1F
100
AcDbEntity
  8
EBENE_01
100
AcDbLine
 10
-1362.600938151365
 20
14.02606295402603
 30
-0.0000000000000284
 11
-1376.940349060141
 21
-6.452738153198709
 31
-0.0000000000000284
  0
ARC
  5
FD
330
1F
100
AcDbEntity
  8
EBENE_01
100
AcDbCircle
 10
-1374.892468949418
 20
-7.88667924407639
 30
-0.0000000000000284
 40
2.500000000000039
100
AcDbArc
 50
144.9999999999992
 51
234.9999999999999
  0
LINE
  5
FE
330
1F
100
AcDbEntity
  8
EBENE_01
100
AcDbLine
 10
-1376.326410040296
 20
-9.934559354798864
 30
-0.0000000000000284
 11
-1350.608587449066
 21
-27.94237259951768
 31
0.0
  0
LINE
  5
FF
330
1F
100
AcDbEntity
  8
EBENE_01
100
AcDbLine
 10
-1350.608587449066
 20
-27.94237259951768
 30
0.0
 11
-1331.108508419407
 21
-41.59647493177005
 31
0.0
  0
CIRCLE
  5
100
330
1F
100
AcDbEntity
  8
EBENE_01
100
AcDbCircle
 10
-1313.504861873143
 20
16.60242513503476
 30
0.0
 40
5.5
  0
ARC
  5
101
330
1F
100
AcDbEntity
  8
HILFSKONSTRUKTIONEN
100
AcDbCircle
 10
-1352.244341457456
 20
-8.48538648085679
 30
0.0
 40
3.05
100
AcDbArc
 50
235.00000000137
 51
55.00000000135969
  0
LINE
  5
102
330
1F
100
AcDbEntity
  8
HILFSKONSTRUKTIONEN
100
AcDbLine
 10
-1350.494933326645
 20
-5.986972745733892
 30
0.0
 11
-1362.340516104578
 21
2.307393609443469
 31
0.0
  0
ARC
  5
103
330
1F
100
AcDbEntity
  8
HILFSKONSTRUKTIONEN
100
AcDbCircle
 10
-1364.08992423539
 20
-0.1910201256793584
 30
0.0
 40
3.05
100
AcDbArc
 50
55.00000000135515
 51
235.0000000013649
  0
LINE
  5
104
330
1F
100
AcDbEntity
  8
HILFSKONSTRUKTIONEN
100
AcDbLine
 10
-1365.839332366201
 20
-2.689433860802438
 30
0.0
 11
-1353.993749588267
 21
-10.98380021598002
 31
0.0
  0
LINE
  5
105
330
1F
100
AcDbEntity
  8
HILFSKONSTRUKTIONEN
100
AcDbLine
 10
-1333.401294358535
 20
-3.367811270848
 30
0.0
 11
-1336.022580900259
 21
-1.532366674524237
 31
0.0
  0
LINE
  5
106
330
1F
100
AcDbEntity
  8
EBENE_01
100
AcDbLine
 10
-1380.514939791836
 20
-10.90819793279333
 30
0.0000000000000061
 11
-1352.44403204539
 21
-30.56365914124346
 31
0.0000000000000061
  0
LINE
  5
107
330
1F
100
AcDbEntity
  8
EBENE_01
100
AcDbLine
 10
-1352.44403204539
 20
-30.56365914124346
 30
0.0000000000000061
 11
-1331.565849762211
 21
-0.746524729123152
 31
-0.0000000000000061
  0
LINE
  5
108
330
1F
100
AcDbEntity
  8
EBENE_01
100
AcDbLine
 10
-1331.565849762211
 20
-0.746524729123152
 30
-0.0000000000000061
 11
-1359.636757508656
 21
18.90893647932732
 31
-0.0000000000000061
  0
ARC
  5
109
330
1F
100
AcDbEntity
  8
EBENE_01
100
AcDbCircle
 10
-1361.247507427897
 20
16.53062426448169
 30
-0.0000000000000051
 40
2.872435254904666
100
AcDbArc
 50
55.89155158462838
 51
145.864632791265
  0
LINE
  5
10A
330
1F
100
AcDbEntity
  8
EBENE_01
100
AcDbLine
 10
-1363.625062615222
 20
18.1424913882995
 30
-0.0000000000000051
 11
-1381.158797679733
 21
-6.898277394826422
 31
0.0000000000000051
  0
ARC
  5
10B
330
1F
100
AcDbEntity
  8
EBENE_01
100
AcDbCircle
 10
-1378.83096627186
 20
-8.581157435156513
 30
0.0000000000000051
 40
2.872435254904829
100
AcDbArc
 50
144.1353672087368
 51
234.1084484153578
  0
LINE
  5
10C
330
1F
100
AcDbEntity
  8
HILFSKONSTRUKTIONEN
100
AcDbLine
 10
-1271.509707512445
 20
2.602425135460521
 30
0.0
 11
-1263.375776260198
 21
2.6024251351135
 31
0.0
  0
ARC
  5
10D
330
1F
100
AcDbEntity
  8
HILFSKONSTRUKTIONEN
100
AcDbCircle
 10
-1263.37577625981
 20
7.6024251351135
 30
0.0
 40
5.0
100
AcDbArc
 50
269.9999999955628
 51
90.0000000024127
  0
LINE
  5
10E
330
1F
100
AcDbEntity
  8
HILFSKONSTRUKTIONEN
100
AcDbLine
 10
-1263.375776260021
 20
12.6024251351135
 30
0.0
 11
-1271.509707512445
 21
12.60242513546052
 31
0.0
  0
ARC
  5
10F
330
1F
100
AcDbEntity
  8
HILFSKONSTRUKTIONEN
100
AcDbCircle
 10
-1271.509707512445
 20
7.602425135460521
 30
0.0
 40
5.0
100
AcDbArc
 50
90.0
 51
270.0
  0
LINE
  5
110
330
1F
100
AcDbEntity
  8
HILFSKONSTRUKTIONEN
100
AcDbLine
 10
-1299.64363876508
 20
-43.3091942673566
 30
0.0
 11
-1291.509707512832
 21
-43.30919426770362
 31
0.0
  0
ARC
  5
111
330
1F
100
AcDbEntity
  8
HILFSKONSTRUKTIONEN
100
AcDbCircle
 10
-1291.509707512445
 20
-38.30919426770362
 30
0.0
 40
5.0
100
AcDbArc
 50
269.9999999955628
 51
90.0000000024127
  0
LINE
  5
112
330
1F
100
AcDbEntity
  8
HILFSKONSTRUKTIONEN
100
AcDbLine
 10
-1291.509707512655
 20
-33.30919426770362
 30
0.0
 11
-1299.64363876508
 21
-33.3091942673566
 31
0.0
  0
ARC
  5
113
330
1F
100
AcDbEntity
  8
HILFSKONSTRUKTIONEN
100
AcDbCircle
 10
-1299.64363876508
 20
-38.3091942673566
 30
0.0
 40
5.0
100
AcDbArc
 50
90.0
 51
270.0
  0
CIRCLE
  5
114
330
1F
100
AcDbEntity
  8
HILFSKONSTRUKTIONEN
100
AcDbCircle
 10
-1322.504861873143
 20
-29.30919426813392
 30
0.0
 40
11.00000000000016
  0
CIRCLE
  5
115
330
1F
100
AcDbEntity
  8
HILFSKONSTRUKTIONEN
100
AcDbCircle
 10
-1333.093255144208
 20
-12.73930770431627
 30
0.0
 40
4.0
  0
CIRCLE
  5
116
330
1F
100
AcDbEntity
  8
HILFSKONSTRUKTIONEN
100
AcDbCircle
 10
-1341.696901689474
 20
-25.02658836865109
 30
0.0
 40
4.0
  0
CIRCLE
  5
117
330
1F
100
AcDbEntity
  8
HILFSKONSTRUKTIONEN
100
AcDbCircle
 10
-1354.968645649851
 20
59.73700382531679
 30
0.0
 40
13.0
  0
CIRCLE
  5
118
330
1F
100
AcDbEntity
  8
HILFSKONSTRUKTIONEN
100
AcDbCircle
 10
-1354.968645649851
 20
59.73700382531679
 30
0.0
 40
4.0
  0
ENDSEC
  0
SECTION
  2
OBJECTS
  0
DICTIONARY
  5
C
330
0
100
AcDbDictionary
  3
ACAD_GROUP
350
D
  3
ACAD_LAYOUT
350
1A
  3
ACAD_MATERIAL
350
43
  3
ACAD_MLEADERSTYLE
350
13B
  3
ACAD_MLINESTYLE
350
17
  3
ACAD_PLOTSETTINGS
350
19
  3
ACAD_SCALELIST
350
47
  3
ACAD_VISUALSTYLE
350
2A
  3
ACDBHEADERROUNDTRIPXREC
350
119
  3
ACDBVARIABLEDICTIONARY
350
139
  0
DICTIONARY
  5
D
102
{ACAD_REACTORS
330
C
102
}
330
C
100
AcDbDictionary
  0
DICTIONARY
  5
1A
102
{ACAD_REACTORS
330
C
102
}
330
C
100
AcDbDictionary
  0
DICTIONARY
  5
43
102
{ACAD_REACTORS
330
C
102
}
330
C
100
AcDbDictionary
  3
BYBLOCK
350
45
  3
BYLAYER
350
44
  3
GLOBAL
350
46
  0
DICTIONARY
  5
13B
102
{ACAD_REACTORS
330
C
102
}
330
C
100
AcDbDictionary
  0
DICTIONARY
  5
17
102
{ACAD_REACTORS
330
C
102
}
330
C
100
AcDbDictionary
  3
STANDARD
350
18
  0
DICTIONARY
  5
19
102
{ACAD_REACTORS
330
C
102
}
330
C
100
AcDbDictionary
  0
DICTIONARY
  5
47
102
{ACAD_REACTORS
330
C
102
}
330
C
100
AcDbDictionary
  3
A0
350
48
  3
A1
350
49
  3
A2
350
4A
  3
A3
350
4B
  3
A4
350
4C
  3
A5
350
4D
  3
A6
350
4E
  3
A7
350
4F
  3
A8
350
50
  3
A9
350
51
  3
B0
350
52
  3
B1
350
53
  3
B2
350
54
  3
B3
350
55
  3
B4
350
56
  3
B5
350
57
  3
B6
350
58
  3
B7
350
59
  3
B8
350
5A
  3
B9
350
5B
  3
C0
350
5C
  3
C1
350
5D
  3
C2
350
5E
  3
C3
350
5F
  3
C4
350
60
  3
C5
350
61
  3
C6
350
62
  3
C7
350
63
  3
C8
350
64
  3
C9
350
65
  3
D0
350
66
  3
D1
350
67
  3
D2
350
68
  0
DICTIONARY
  5
2A
102
{ACAD_REACTORS
330
C
102
}
330
C
100
AcDbDictionary
  3
2DWIREFRAME
350
2F
  3
BASIC
350
32
  3
BRIGHTEN
350
36
  3
COLORCHANGE
350
3A
  3
CONCEPTUAL
350
34
  3
DIM
350
35
  3
EDGECOLOROFF
350
3D
  3
FACEPATTERN
350
39
  3
FLAT
350
2B
  3
FLATWITHEDGES
350
2C
  3
GOURAUD
350
2D
  3
GOURAUDWITHEDGES
350
2E
  3
HIDDEN
350
31
  3
JITTEROFF
350
3B
  3
LINEPATTERN
350
38
  3
OVERHANGOFF
350
3C
  3
REALISTIC
350
33
  3
SHADED
350
42
  3
SHADED_WITH_EDGES
350
41
  3
SHADES_OF_GRAY
350
3E
  3
SKETCHY
350
3F
  3
THICKEN
350
37
  3
WIREFRAME
350
30
  3
X-RAY
350
40
  0
DICTIONARY
  5
119
102
{ACAD_REACTORS
330
C
102
}
330
C
100
AcDbDictionary
  3
CEPSNTYPE
350
122
  3
DIMSTYLEDATA
350
138
  3
FINGERPRINTGUID
350
123
  3
HYPERLINKBASE
350
11C
  3
INSUNITS
350
121
  3
LAYOUTDICT
350
11E
  3
LWETCUNION
350
120
  3
PLOTSETDICT
350
11F
  3
PSVPSCALE
350
125
  3
PUCSBASE
350
128
  3
PUCSORGBACK
350
12E
  3
PUCSORGBOTTOM
350
12A
  3
PUCSORGFRONT
350
12D
  3
PUCSORGLEFT
350
12B
  3
PUCSORGRIGHT
350
12C
  3
PUCSORGTOP
350
129
  3
PUCSORTHOREF
350
126
  3
PUCSORTHOVIEW
350
127
  3
STYLESHEET
350
11D
  3
TSTACKALIGN
350
11A
  3
TSTACKSIZE
350
11B
  3
UCSBASE
350
131
  3
UCSORGBACK
350
137
  3
UCSORGBOTTOM
350
133
  3
UCSORGFRONT
350
136
  3
UCSORGLEFT
350
134
  3
UCSORGRIGHT
350
135
  3
UCSORGTOP
350
132
  3
UCSORTHOREF
350
12F
  3
UCSORTHOVIEW
350
130
  3
VERSIONGUID
350
124
  0
DICTIONARY
  5
139
102
{ACAD_REACTORS
330
C
102
}
330
C
100
AcDbDictionary
  3
CANNOSCALE
350
140
  3
DIMASSOC
350
13E
  3
HIDETEXT
350
13F
  3
MSLTSCALE
350
141
  0
MATERIAL
  5
45
102
{ACAD_REACTORS
330
43
102
}
102
{ACAD_XDICTIONARY
360
144
102
}
330
43
100
AcDbMaterial
  1
BYBLOCK
  0
MATERIAL
  5
44
102
{ACAD_REACTORS
330
43
102
}
102
{ACAD_XDICTIONARY
360
142
102
}
330
43
100
AcDbMaterial
  1
BYLAYER
  0
MATERIAL
  5
46
102
{ACAD_REACTORS
330
43
102
}
102
{ACAD_XDICTIONARY
360
146
102
}
330
43
100
AcDbMaterial
  1
GLOBAL
  0
MLINESTYLE
  5
18
102
{ACAD_REACTORS
330
17
102
}
330
17
100
AcDbMlineStyle
  2
Standard
 70
     0
  3

 62
   256
 51
90.0
 52
90.0
 71
     2
 49
0.5
 62
   256
  6
BYLAYER
 49
-0.5
 62
   256
  6
BYLAYER
  0
ACAD_PROXY_OBJECT
  5
48
102
{ACAD_REACTORS
330
47
102
}
330
47
100
AcDbProxyObject
 90
      499
 91
      503
 93
       41
310
903313A31580
  0
ACAD_PROXY_OBJECT
  5
49
102
{ACAD_REACTORS
330
47
102
}
330
47
100
AcDbProxyObject
 90
      499
 91
      503
 93
      105
310
903313A324000000000000004000
  0
ACAD_PROXY_OBJECT
  5
4A
102
{ACAD_REACTORS
330
47
102
}
330
47
100
AcDbProxyObject
 90
      499
 91
      503
 93
      105
310
903313A344000000000000104000
  0
ACAD_PROXY_OBJECT
  5
4B
102
{ACAD_REACTORS
330
47
102
}
330
47
100
AcDbProxyObject
 90
      499
 91
      503
 93
      105
310
903313A354000000000000144000
  0
ACAD_PROXY_OBJECT
  5
4C
102
{ACAD_REACTORS
330
47
102
}
330
47
100
AcDbProxyObject
 90
      499
 91
      503
 93
      105
310
903313A384000000000000204000
  0
ACAD_PROXY_OBJECT
  5
4D
102
{ACAD_REACTORS
330
47
102
}
330
47
100
AcDbProxyObject
 90
      499
 91
      503
 93
      113
310
904313A31304000000000000244000
  0
ACAD_PROXY_OBJECT
  5
4E
102
{ACAD_REACTORS
330
47
102
}
330
47
100
AcDbProxyObject
 90
      499
 91
      503
 93
      113
310
904313A31364000000000000304000
  0
ACAD_PROXY_OBJECT
  5
4F
102
{ACAD_REACTORS
330
47
102
}
330
47
100
AcDbProxyObject
 90
      499
 91
      503
 93
      113
310
904313A32304000000000000344000
  0
ACAD_PROXY_OBJECT
  5
50
102
{ACAD_REACTORS
330
47
102
}
330
47
100
AcDbProxyObject
 90
      499
 91
      503
 93
      113
310
904313A333040000000000003E4000
  0
ACAD_PROXY_OBJECT
  5
51
102
{ACAD_REACTORS
330
47
102
}
330
47
100
AcDbProxyObject
 90
      499
 91
      503
 93
      113
310
904313A34304000000000000444000
  0
ACAD_PROXY_OBJECT
  5
52
102
{ACAD_REACTORS
330
47
102
}
330
47
100
AcDbProxyObject
 90
      499
 91
      503
 93
      113
310
904313A35304000000000000494000
  0
ACAD_PROXY_OBJECT
  5
53
102
{ACAD_REACTORS
330
47
102
}
330
47
100
AcDbProxyObject
 90
      499
 91
      503
 93
      121
310
905313A3130304000000000000594000
  0
ACAD_PROXY_OBJECT
  5
54
102
{ACAD_REACTORS
330
47
102
}
330
47
100
AcDbProxyObject
 90
      499
 91
      503
 93
      105
310
903323A310000000000000010100
  0
ACAD_PROXY_OBJECT
  5
55
102
{ACAD_REACTORS
330
47
102
}
330
47
100
AcDbProxyObject
 90
      499
 91
      503
 93
      105
310
903343A310000000000000410100
  0
ACAD_PROXY_OBJECT
  5
56
102
{ACAD_REACTORS
330
47
102
}
330
47
100
AcDbProxyObject
 90
      499
 91
      503
 93
      105
310
903383A310000000000000810100
  0
ACAD_PROXY_OBJECT
  5
57
102
{ACAD_REACTORS
330
47
102
}
330
47
100
AcDbProxyObject
 90
      499
 91
      503
 93
      113
310
90431303A310000000000000910100
  0
ACAD_PROXY_OBJECT
  5
58
102
{ACAD_REACTORS
330
47
102
}
330
47
100
AcDbProxyObject
 90
      499
 91
      503
 93
      121
310
9053130303A310000000000001650100
  0
ACAD_PROXY_OBJECT
  5
59
102
{ACAD_REACTORS
330
47
102
}
330
47
100
AcDbProxyObject
 90
      499
 91
      503
 93
      257
310
90E312F31323822203D2031272D3022000000000000200FC000000000000284000
  0
ACAD_PROXY_OBJECT
  5
5A
102
{ACAD_REACTORS
330
47
102
}
330
47
100
AcDbProxyObject
 90
      499
 91
      503
 93
      249
310
90D312F363422203D2031272D3022000000000000240FC000000000000284000
  0
ACAD_PROXY_OBJECT
  5
5B
102
{ACAD_REACTORS
330
47
102
}
330
47
100
AcDbProxyObject
 90
      499
 91
      503
 93
      249
310
90D312F333222203D2031272D3022000000000000280FC000000000000284000
  0
ACAD_PROXY_OBJECT
  5
5C
102
{ACAD_REACTORS
330
47
102
}
330
47
100
AcDbProxyObject
 90
      499
 91
      503
 93
      249
310
90D312F313622203D2031272D30220000000000002C0FC000000000000284000
  0
ACAD_PROXY_OBJECT
  5
5D
102
{ACAD_REACTORS
330
47
102
}
330
47
100
AcDbProxyObject
 90
      499
 91
      503
 93
      249
310
90D332F333222203D2031272D30220000000000002E0FC000000000000284000
  0
ACAD_PROXY_OBJECT
  5
5E
102
{ACAD_REACTORS
330
47
102
}
330
47
100
AcDbProxyObject
 90
      499
 91
      503
 93
      241
310
90C312F3822203D2031272D3022000000000000300FC000000000000284000
  0
ACAD_PROXY_OBJECT
  5
5F
102
{ACAD_REACTORS
330
47
102
}
330
47
100
AcDbProxyObject
 90
      499
 91
      503
 93
      249
310
90D332F313622203D2031272D3022000000000000320FC000000000000284000
  0
ACAD_PROXY_OBJECT
  5
60
102
{ACAD_REACTORS
330
47
102
}
330
47
100
AcDbProxyObject
 90
      499
 91
      503
 93
      241
310
90C312F3422203D2031272D3022000000000000340FC000000000000284000
  0
ACAD_PROXY_OBJECT
  5
61
102
{ACAD_REACTORS
330
47
102
}
330
47
100
AcDbProxyObject
 90
      499
 91
      503
 93
      241
310
90C332F3822203D2031272D3022000000000000360FC000000000000284000
  0
ACAD_PROXY_OBJECT
  5
62
102
{ACAD_REACTORS
330
47
102
}
330
47
100
AcDbProxyObject
 90
      499
 91
      503
 93
      241
310
90C312F3222203D2031272D3022000000000000380FC000000000000284000
  0
ACAD_PROXY_OBJECT
  5
63
102
{ACAD_REACTORS
330
47
102
}
330
47
100
AcDbProxyObject
 90
      499
 91
      503
 93
      241
310
90C332F3422203D2031272D30220000000000003A0FC000000000000284000
  0
ACAD_PROXY_OBJECT
  5
64
102
{ACAD_REACTORS
330
47
102
}
330
47
100
AcDbProxyObject
 90
      499
 91
      503
 93
      161
310
90A3122203D2031272D30224000000000000284000
  0
ACAD_PROXY_OBJECT
  5
65
102
{ACAD_REACTORS
330
47
102
}
330
47
100
AcDbProxyObject
 90
      499
 91
      503
 93
      257
310
90E312D312F3222203D2031272D30220000000000003E0FC000000000000284000
  0
ACAD_PROXY_OBJECT
  5
66
102
{ACAD_REACTORS
330
47
102
}
330
47
100
AcDbProxyObject
 90
      499
 91
      503
 93
      225
310
90A3322203D2031272D302200000000000002100000000000000284000
  0
ACAD_PROXY_OBJECT
  5
67
102
{ACAD_REACTORS
330
47
102
}
330
47
100
AcDbProxyObject
 90
      499
 91
      503
 93
      225
310
90A3622203D2031272D302200000000000006100000000000000284000
  0
ACAD_PROXY_OBJECT
  5
68
102
{ACAD_REACTORS
330
47
102
}
330
47
100
AcDbProxyObject
 90
      499
 91
      503
 93
      249
310
90D31272D3022203D2031272D30220000000000000A100000000000000284000
  0
ACAD_PROXY_OBJECT
  5
2F
102
{ACAD_REACTORS
330
2A
102
}
330
2A
100
AcDbProxyObject
 90
      499
 91
      501
 93
      436
310
42CC9915DA5C99599C985B595049028333333333333E33F0000000000000F90107901411070040501600405405064090741402480A0340
1001
ACAD
1000
AcDbSavedByObjectVersion
1070
     0
  0
ACAD_PROXY_OBJECT
  5
32
102
{ACAD_REACTORS
330
2A
102
}
330
2A
100
AcDbProxyObject
 90
      499
 91
      501
 93
      388
310
4150985CDA58D07406404333333333333E33F0000000000000F90107A41107004050150841D405064090741402480A0350
1001
ACAD
1000
AcDbSavedByObjectVersion
1070
     0
  0
ACAD_PROXY_OBJECT
  5
36
102
{ACAD_REACTORS
330
2A
102
}
330
2A
100
AcDbProxyObject
 90
      499
 91
      501
 93
      428
310
42109C9A59DA1D195B90C409028333333333333E33F0000000000000F9010790141107004050150841D405064090741402480A029950
1001
ACAD
1000
AcDbSavedByObjectVersion
1070
     0
  0
ACAD_PROXY_OBJECT
  5
3A
102
{ACAD_REACTORS
330
2A
102
}
330
2A
100
AcDbProxyObject
 90
      499
 91
      501
 93
      452
310
42D0DBDB1BDC90DA185B99D95104090240C333333333333E33F0000000000000F90108901411070040501508421405064090741402480A0350
1001
ACAD
1000
AcDbSavedByObjectVersion
1070
     0
  0
ACAD_PROXY_OBJECT
  5
34
102
{ACAD_REACTORS
330
2A
102
}
330
2A
100
AcDbProxyObject
 90
      499
 91
      501
 93
      500
310
4290DBDB98D95C1D1D585B10940D028333333333333E33F0000000000000F90107902409070040501000000000018199010841D405064090740C02480A0340
1001
ACAD
1000
AcDbSavedByObjectVersion
1070
     0
  0
ACAD_PROXY_OBJECT
  5
35
102
{ACAD_REACTORS
330
2A
102
}
330
2A
100
AcDbProxyObject
 90
      499
 91
      501
 93
      412
310
40D11A5B50B409028333333333333E33F0000000000000F9010790141107004050150841D405064090741402480A02677FFFFFD0
1001
ACAD
1000
AcDbSavedByObjectVersion
1070
     0
  0
ACAD_PROXY_OBJECT
  5
3D
102
{ACAD_REACTORS
330
2A
102
}
330
2A
100
AcDbProxyObject
 90
      499
 91
      501
 93
      452
310
43115919D950DBDB1BDC93D999916409028333333333333E33F0000000000000F9010790141107004050150841D405064090741402480A0350
1001
ACAD
1000
AcDbSavedByObjectVersion
1070
     0
  0
ACAD_PROXY_OBJECT
  5
39
102
{ACAD_REACTORS
330
2A
102
}
330
2A
100
AcDbProxyObject
 90
      499
 91
      501
 93
      444
310
42D19858D95C185D1D195C9B90F409028333333333333E33F0000000000000F9010790141107004050150841D405064090741402480A0350
1001
ACAD
1000
AcDbSavedByObjectVersion
1070
     0
  0
ACAD_PROXY_OBJECT
  5
2B
102
{ACAD_REACTORS
330
2A
102
}
330
2A
100
AcDbProxyObject
 90
      499
 91
      501
 93
      380
310
41119B185D240901404333333333333E33F0000000000000F9010740A907004050150841D405064090741402480A1B50
1001
ACAD
1000
AcDbSavedByObjectVersion
1070
     0
  0
ACAD_PROXY_OBJECT
  5
2C
102
{ACAD_REACTORS
330
2A
102
}
330
2A
100
AcDbProxyObject
 90
      499
 91
      501
 93
      468
310
43519B185D15DA5D1A115919D95CD0140901404333333333333E33F0000000000000F90107409019070040501600405405064090741402480A1B50
1001
ACAD
1000
AcDbSavedByObjectVersion
1070
     0
  0
ACAD_PROXY_OBJECT
  5
2D
102
{ACAD_REACTORS
330
2A
102
}
330
2A
100
AcDbProxyObject
 90
      499
 91
      501
 93
      404
310
41D1DBDD5C985D5910240902404333333333333E33F0000000000000F9010740A9070040501641D405064090741402480A1B50
1001
ACAD
1000
AcDbSavedByObjectVersion
1070
     0
  0
ACAD_PROXY_OBJECT
  5
2E
102
{ACAD_REACTORS
330
2A
102
}
330
2A
100
AcDbProxyObject
 90
      499
 91
      501
 93
      492
310
4411DBDD5C985D5915DA5D1A115919D95CD0340902404333333333333E33F0000000000000F90107409019070040501600405405064090741402480A1B50
1001
ACAD
1000
AcDbSavedByObjectVersion
1070
     0
  0
ACAD_PROXY_OBJECT
  5
31
102
{ACAD_REACTORS
330
2A
102
}
330
2A
100
AcDbProxyObject
 90
      499
 91
      501
 93
      476
310
41921A5919195B90640502408333333333333E33F0000000000000F901079024090700405020000000000001110200405405064090740C02480A0340
1001
ACAD
1000
AcDbSavedByObjectVersion
1070
     0
  0
ACAD_PROXY_OBJECT
  5
3B
102
{ACAD_REACTORS
330
2A
102
}
330
2A
100
AcDbProxyObject
 90
      499
 91
      501
 93
      428
310
42529A5D1D195C93D999914409028333333333333E33F0000000000000F9010790141107004050150A41D405064090741402480A0350
1001
ACAD
1000
AcDbSavedByObjectVersion
1070
     0
  0
ACAD_PROXY_OBJECT
  5
38
102
{ACAD_REACTORS
330
2A
102
}
330
2A
100
AcDbProxyObject
 90
      499
 91
      501
 93
      444
310
42D31A5B995C185D1D195C9B90E409028333333333333E33F0000000000000F9010790141107004050750841D405064090741402483A0350
1001
ACAD
1000
AcDbSavedByObjectVersion
1070
     0
  0
ACAD_PROXY_OBJECT
  5
3C
102
{ACAD_REACTORS
330
2A
102
}
330
2A
100
AcDbProxyObject
 90
      499
 91
      501
 93
      444
310
42D3DD995C9A185B99D3D999915409028333333333333E33F0000000000000F9010790141107004050150941D405064090741402480A0350
1001
ACAD
1000
AcDbSavedByObjectVersion
1070
     0
  0
ACAD_PROXY_OBJECT
  5
33
102
{ACAD_REACTORS
330
2A
102
}
330
2A
100
AcDbProxyObject
 90
      499
 91
      501
 93
      428
310
425499585B1A5CDD1A58D08409038333333333333E33F0000000000000F9010740A907004050150800405405064090740C02480A1B40
1001
ACAD
1000
AcDbSavedByObjectVersion
1070
     0
  0
ACAD_PROXY_OBJECT
  5
42
102
{ACAD_REACTORS
330
2A
102
}
330
2A
100
AcDbProxyObject
 90
      499
 91
      501
 93
      420
310
4194DA1859195911B40902404333333333333E33F0000000000000F9010740A41107004050150800405405064090840C02480A0B40
1001
ACAD
1000
AcDbSavedByObjectVersion
1070
     0
  0
ACAD_PROXY_OBJECT
  5
41
102
{ACAD_REACTORS
330
2A
102
}
330
2A
100
AcDbProxyObject
 90
      499
 91
      501
 93
      516
310
4454DA18591959081DDA5D1A08195919D95CD1A40902404333333333333E33F0000000000000F901074090142907004050250800405405064090740C02480A0B40
1001
ACAD
1000
AcDbSavedByObjectVersion
1070
     0
  0
ACAD_PROXY_OBJECT
  5
3E
102
{ACAD_REACTORS
330
2A
102
}
330
2A
100
AcDbProxyObject
 90
      499
 91
      501
 93
      532
310
4394DA1859195CC81BD98811DC985E5174090240C333333333333E33F0000000000000F901079024090741D01000000000000111010841D405064090740C02480A0340
1001
ACAD
1000
AcDbSavedByObjectVersion
1070
     0
  0
ACAD_PROXY_OBJECT
  5
3F
102
{ACAD_REACTORS
330
2A
102
}
330
2A
100
AcDbProxyObject
 90
      499
 91
      501
 93
      476
310
41D4DAD95D18DA1E51840502408333333333333E33F0000000000000F901079024090741D01000000000000111010B41D405064090741802480A0340
1001
ACAD
1000
AcDbSavedByObjectVersion
1070
     0
  0
ACAD_PROXY_OBJECT
  5
37
102
{ACAD_REACTORS
330
2A
102
}
330
2A
100
AcDbProxyObject
 90
      499
 91
      501
 93
      412
310
41D51A1A58DAD95B90D409028333333333333E33F0000000000000F9010790141107004050150C41D405064090741402480A0350
1001
ACAD
1000
AcDbSavedByObjectVersion
1070
     0
  0
ACAD_PROXY_OBJECT
  5
30
102
{ACAD_REACTORS
330
2A
102
}
330
2A
100
AcDbProxyObject
 90
      499
 91
      501
 93
      420
310
4255DA5C99599C985B595059028333333333333E33F0000000000000F90107901411070040501600405405064090740C02480A0340
1001
ACAD
1000
AcDbSavedByObjectVersion
1070
     0
  0
ACAD_PROXY_OBJECT
  5
40
102
{ACAD_REACTORS
330
2A
102
}
330
2A
100
AcDbProxyObject
 90
      499
 91
      501
 93
      404
310
41560B54985E51940902404000000000000E03F0000000000000F9010740501907004050150841D405064090740C02480A1B40
1001
ACAD
1000
AcDbSavedByObjectVersion
1070
     0
  0
XRECORD
  5
122
102
{ACAD_REACTORS
330
119
102
}
330
119
100
AcDbXrecord
 90
        0
  0
XRECORD
  5
138
102
{ACAD_REACTORS
330
119
102
}
330
119
100
AcDbXrecord
1000
DSTYLE
1002
{
1070
   279
 70
     2
1070
   340
340
11
1002
}
  0
XRECORD
  5
123
102
{ACAD_REACTORS
330
119
102
}
330
119
100
AcDbXrecord
  1
{320E082B-EDDB-44CD-BE38-3F3D10B8FE7F}
  0
XRECORD
  5
11C
102
{ACAD_REACTORS
330
119
102
}
330
119
100
AcDbXrecord
  1

  0
XRECORD
  5
121
102
{ACAD_REACTORS
330
119
102
}
330
119
100
AcDbXrecord
 90
        4
  0
XRECORD
  5
11E
102
{ACAD_REACTORS
330
119
102
}
330
119
100
AcDbXrecord
340
1A
  0
XRECORD
  5
120
102
{ACAD_REACTORS
330
119
102
}
330
119
100
AcDbXrecord
 90
    10781
  0
XRECORD
  5
11F
102
{ACAD_REACTORS
330
119
102
}
330
119
100
AcDbXrecord
340
19
  0
XRECORD
  5
125
102
{ACAD_REACTORS
330
119
102
}
330
119
100
AcDbXrecord
 40
0.0
  0
XRECORD
  5
128
102
{ACAD_REACTORS
330
119
102
}
330
119
100
AcDbXrecord
340
0
  0
XRECORD
  5
12E
102
{ACAD_REACTORS
330
119
102
}
330
119
100
AcDbXrecord
 10
0.0
 20
0.0
 30
0.0
  0
XRECORD
  5
12A
102
{ACAD_REACTORS
330
119
102
}
330
119
100
AcDbXrecord
 10
0.0
 20
0.0
 30
0.0
  0
XRECORD
  5
12D
102
{ACAD_REACTORS
330
119
102
}
330
119
100
AcDbXrecord
 10
0.0
 20
0.0
 30
0.0
  0
XRECORD
  5
12B
102
{ACAD_REACTORS
330
119
102
}
330
119
100
AcDbXrecord
 10
0.0
 20
0.0
 30
0.0
  0
XRECORD
  5
12C
102
{ACAD_REACTORS
330
119
102
}
330
119
100
AcDbXrecord
 10
0.0
 20
0.0
 30
0.0
  0
XRECORD
  5
129
102
{ACAD_REACTORS
330
119
102
}
330
119
100
AcDbXrecord
 10
0.0
 20
0.0
 30
0.0
  0
XRECORD
  5
126
102
{ACAD_REACTORS
330
119
102
}
330
119
100
AcDbXrecord
340
0
  0
XRECORD
  5
127
102
{ACAD_REACTORS
330
119
102
}
330
119
100
AcDbXrecord
 70
     0
  0
XRECORD
  5
11D
102
{ACAD_REACTORS
330
119
102
}
330
119
100
AcDbXrecord
  1

  0
XRECORD
  5
11A
102
{ACAD_REACTORS
330
119
102
}
330
119
100
AcDbXrecord
 90
        1
  0
XRECORD
  5
11B
102
{ACAD_REACTORS
330
119
102
}
330
119
100
AcDbXrecord
 90
       70
  0
XRECORD
  5
131
102
{ACAD_REACTORS
330
119
102
}
330
119
100
AcDbXrecord
340
0
  0
XRECORD
  5
137
102
{ACAD_REACTORS
330
119
102
}
330
119
100
AcDbXrecord
 10
0.0
 20
0.0
 30
0.0
  0
XRECORD
  5
133
102
{ACAD_REACTORS
330
119
102
}
330
119
100
AcDbXrecord
 10
0.0
 20
0.0
 30
0.0
  0
XRECORD
  5
136
102
{ACAD_REACTORS
330
119
102
}
330
119
100
AcDbXrecord
 10
0.0
 20
0.0
 30
0.0
  0
XRECORD
  5
134
102
{ACAD_REACTORS
330
119
102
}
330
119
100
AcDbXrecord
 10
0.0
 20
0.0
 30
0.0
  0
XRECORD
  5
135
102
{ACAD_REACTORS
330
119
102
}
330
119
100
AcDbXrecord
 10
0.0
 20
0.0
 30
0.0
  0
XRECORD
  5
132
102
{ACAD_REACTORS
330
119
102
}
330
119
100
AcDbXrecord
 10
0.0
 20
0.0
 30
0.0
  0
XRECORD
  5
12F
102
{ACAD_REACTORS
330
119
102
}
330
119
100
AcDbXrecord
340
0
  0
XRECORD
  5
130
102
{ACAD_REACTORS
330
119
102
}
330
119
100
AcDbXrecord
 70
     0
  0
XRECORD
  5
124
102
{ACAD_REACTORS
330
119
102
}
330
119
100
AcDbXrecord
  1
{FAEB1C32-E019-11D5-929B-00C0DF256EC4}
  0
DICTIONARYVAR
  5
140
102
{ACAD_REACTORS
330
139
102
}
330
139
100
DictionaryVariables
280
     0
  1
1:1
  0
DICTIONARYVAR
  5
13E
102
{ACAD_REACTORS
330
139
102
}
330
139
100
DictionaryVariables
280
     0
  1
2
  0
DICTIONARYVAR
  5
13F
102
{ACAD_REACTORS
330
139
102
}
330
139
100
DictionaryVariables
280
     0
  1
1
  0
DICTIONARYVAR
  5
141
102
{ACAD_REACTORS
330
139
102
}
330
139
100
DictionaryVariables
280
     0
  1
1
  0
DICTIONARY
  5
144
330
45
100
AcDbDictionary
280
     1
  3
ACAD_XREC_ROUNDTRIP
360
145
  0
DICTIONARY
  5
142
330
44
100
AcDbDictionary
280
     1
  3
ACAD_XREC_ROUNDTRIP
360
143
  0
DICTIONARY
  5
146
330
46
100
AcDbDictionary
280
     1
  3
ACAD_XREC_ROUNDTRIP
360
147
  0
XRECORD
  5
145
102
{ACAD_REACTORS
330
144
102
}
330
144
100
AcDbXrecord
102
MATERIAL
148
0.0
149
0.0
149
0.0
 93
        0
 94
      127
282
     0
 72
     1
 77
     1
171
     1
175
     1
179
     1
273
     0
  0
XRECORD
  5
143
102
{ACAD_REACTORS
330
142
102
}
330
142
100
AcDbXrecord
102
MATERIAL
148
0.0
149
0.0
149
0.0
 93
        0
 94
      127
282
     0
 72
     1
 77
     1
171
     1
175
     1
179
     1
273
     0
  0
XRECORD
  5
147
102
{ACAD_REACTORS
330
146
102
}
330
146
100
AcDbXrecord
102
MATERIAL
148
0.0
149
0.0
149
0.0
 93
        0
 94
      127
282
     0
 72
     1
 77
     1
171
     1
175
     1
179
     1
273
     0
  0
ENDSEC
  0
EOF
